<svg xmlns="http://www.w3.org/2000/svg" viewBox="0 0 24 24" width="64" height="64" fill="#FFFFFF"><path d="M24 18.578c-.394.275-.845.474-1.325.58-.48.105-.98.158-1.478.158-1.026 0-1.895-.253-2.56-.745-.665-.492-1.077-1.22-1.214-2.14h7.027c.045-.25.068-.523.068-.804 0-1.475-.468-2.67-1.385-3.53-.918-.862-2.16-1.31-3.673-1.31-1.57 0-2.85.495-3.784 1.464-.934.97-1.42 2.29-1.438 3.902 0 1.637.48 2.97 1.42 3.94.94.97 2.27 1.47 3.93 1.47.8 0 1.56-.11 2.26-.32.7-.22 1.31-.54 1.8-.95l-.65-1.71zm-4.73-3.69c.08-.73.34-1.31.78-1.72.44-.41 1.01-.62 1.68-.62.65 0 1.18.19 1.58.58.4.39.63.95.68 1.76h-4.72zm-7.94-7.39l-2.48 3.94-2.48-3.94H4.07l3.65 5.53-3.92 5.97h2.38l2.65-4.25 2.65 4.25h2.38l-3.92-5.97 3.65-5.53h-2.2z"/></svg>